<?xml version="1.0" encoding="UTF-8"?>
<svg xmlns="http://www.w3.org/2000/svg" xmlns:xlink="http://www.w3.org/1999/xlink" width="24px" height="24px" viewBox="0 0 24 24" version="1.1">
<g id="surface1">
<path style=" stroke:none;fill-rule:nonzero;fill:rgb(100%,100%,100%);fill-opacity:1;" d="M 8.640625 12 C 8.640625 13.855469 10.144531 15.359375 12 15.359375 C 13.855469 15.359375 15.359375 13.855469 15.359375 12 C 15.359375 10.144531 13.855469 8.640625 12 8.640625 C 10.144531 8.640625 8.640625 10.144531 8.640625 12 Z M 8.640625 12 "/>
<path style=" stroke:none;fill-rule:nonzero;fill:rgb(100%,100%,100%);fill-opacity:1;" d="M 6.121094 12 C 6.121094 10.0625 7.09375 8.367188 8.550781 7.429688 L 7.335938 6.144531 C 7.007812 6.382812 6.695312 6.660156 6.40625 6.964844 C 5.136719 8.3125 4.4375 10.097656 4.4375 12 C 4.4375 13.902344 5.136719 15.6875 6.40625 17.035156 C 6.695312 17.339844 7.007812 17.617188 7.335938 17.855469 L 8.550781 16.570312 C 7.09375 15.632812 6.121094 13.9375 6.121094 12 Z M 6.121094 12 "/>
<path style=" stroke:none;fill-rule:nonzero;fill:rgb(100%,100%,100%);fill-opacity:1;" d="M 17.878906 12 C 17.878906 13.9375 16.90625 15.632812 15.449219 16.570312 L 16.664062 17.855469 C 16.992188 17.617188 17.300781 17.339844 17.59375 17.035156 C 18.863281 15.6875 19.5625 13.902344 19.5625 12 C 19.5625 10.097656 18.863281 8.3125 17.59375 6.964844 C 17.304688 6.660156 16.992188 6.382812 16.664062 6.144531 L 15.449219 7.429688 C 16.90625 8.367188 17.878906 10.0625 17.878906 12 Z M 17.878906 12 "/>
<path style=" stroke:none;fill-rule:nonzero;fill:rgb(100%,100%,100%);fill-opacity:1;" d="M 1.921875 12 C 1.921875 9.078125 3.242188 6.492188 5.292969 4.871094 L 4.09375 3.601562 C 3.777344 3.863281 3.476562 4.144531 3.191406 4.449219 C 2.269531 5.429688 1.542969 6.570312 1.03125 7.84375 C 0.507812 9.160156 0.238281 10.5625 0.238281 12 C 0.238281 13.4375 0.507812 14.839844 1.03125 16.15625 C 1.542969 17.429688 2.265625 18.570312 3.191406 19.550781 C 3.476562 19.851562 3.777344 20.136719 4.09375 20.398438 L 5.292969 19.128906 C 3.242188 17.507812 1.921875 14.921875 1.921875 12 Z M 1.921875 12 "/>
<path style=" stroke:none;fill-rule:nonzero;fill:rgb(100%,100%,100%);fill-opacity:1;" d="M 22.078125 12 C 22.078125 14.921875 20.757812 17.507812 18.707031 19.128906 L 19.902344 20.382812 C 20.21875 20.125 20.523438 19.855469 20.808594 19.550781 C 21.730469 18.570312 22.457031 17.429688 22.964844 16.15625 C 23.488281 14.839844 23.757812 13.4375 23.757812 12 C 23.757812 10.5625 23.488281 9.160156 22.964844 7.84375 C 22.457031 6.570312 21.730469 5.429688 20.808594 4.449219 C 20.523438 4.148438 20.21875 3.863281 19.902344 3.601562 L 18.707031 4.871094 C 20.757812 6.492188 22.078125 9.078125 22.078125 12 Z M 22.078125 12 "/>
</g>
</svg>
