<?xml version="1.0" encoding="utf-8"?>
<!-- Svg Vector Icons : http://www.onlinewebfonts.com/icon -->
<!DOCTYPE svg PUBLIC "-//W3C//DTD SVG 1.1//EN" "http://www.w3.org/Graphics/SVG/1.1/DTD/svg11.dtd">
<svg version="1.1" xmlns="http://www.w3.org/2000/svg"  width="16" height="16" color:"white" class="radiowave" xmlns:xlink="http://www.w3.org/1999/xlink" x="0px" y="0px" viewBox="0 0 16 16" enable-background="new 0 0 16 16" xml:space="preserve">
<metadata> Svg Vector Icons : http://www.onlinewebfonts.com/icon </metadata>
<g><path d="M360,500c0,77.3,62.7,140,140,140c77.3,0,140-62.7,140-140c0-77.3-62.7-140-140-140C422.7,360,360,422.7,360,500z"/><path d="M255,500c0-80.7,40.6-151.4,101.3-190.4L305.7,256C292,266.1,279,277.5,267,290.3c-52.9,56-82,130.5-82,209.7s29.1,153.7,82,209.7c12,12.8,25,24.2,38.7,34.3l50.6-53.6C295.6,651.4,255,580.7,255,500z"/><path d="M745,500c0,80.7-40.6,151.4-101.3,190.4l50.6,53.6c13.7-10.1,26.6-21.5,38.7-34.3c52.9-56,82-130.5,82-209.7s-29.1-153.7-82-209.7c-12-12.8-25-24.2-38.7-34.3l-50.6,53.6C704.4,348.6,745,419.3,745,500z"/><path d="M80,500c0-121.6,55.2-229.5,140.6-297.1L170.6,150c-13.1,10.9-25.7,22.7-37.6,35.4c-38.5,40.8-68.8,88.4-90,141.4C21.1,381.7,10,440,10,500c0,60,11.1,118.3,33,173.2c21.2,53,51.4,100.6,90,141.4c11.9,12.6,24.5,24.4,37.6,35.4l49.9-52.9C135.2,729.5,80,621.6,80,500z"/><path d="M920,500c0,121.6-55.2,229.5-140.6,297.1l49.9,52.2c13.1-10.9,25.7-22,37.6-34.7c38.5-40.8,68.8-88.4,90-141.4c21.9-54.9,33-113.2,33-173.2c0-60-11.1-118.3-33-173.2c-21.2-53-51.4-100.6-90-141.4c-11.9-12.6-24.5-24.5-37.6-35.4l-49.9,52.9C864.8,270.5,920,378.4,920,500z"/></g>
</svg>